{"title":"High School Musical 3, Senior Year 2008 DVDrip","uid":6755842,"size":1787931693,"categoryP":"video","categoryS":"movies","magnet":"?xt=urn:btih:0903edcbf34f052c0c65c4a2812b4c83ccad4f9c&amp;dn=High+School+Musical+3%2C+Senior+Year+2008+DVDrip&amp;tr=udp%3A%2F%2Ftracker.openbittorrent.com%3A80&amp;tr=udp%3A%2F%2Fopen.demonii.com%3A1337&amp;tr=udp%3A%2F%2Ftracker.coppersurfer.tk%3A6969&amp;tr=udp%3A%2F%2Fexodus.desync.com%3A6969","seeders":14,"leechers":3,"uploader":"Klambake","files":-1,"time":1319033711,"description":"With: Zac Efron, Vanessa Hudgens and Ashley Tisdale\n\nDutch spoken, Nederlands gesproken,\nHet is hun laatste jaar op de middelbare school en Troy en Gabriella kunnen maar niet wennen aan de gedachte dat ze van elkaar zullen worden gescheiden. Samen met de andere Wildcats besluiten ze een musical op te zetten waarin ze hun gevoelens kunnen uiten met betrekking tot de onzekere toekomst.\n\nAs seniors in high school, Troy and Gabriella struggle with the idea of being separated from one another as college approaches. Along with the rest of the Wildcats, they stage a spring musical to address their experiences, hopes and fears about their future. \n\n------------------ Dutch Friends ------------------\nYou can find my Friends at: http://www.Film-Test.nl \n------ They got my dutch subs ----- and more ------\n\nGeneral:\n\nComplete name                    : High School Musical 3.avi\nFormat                           : AVI\nFormat/Info                      : Audio Video Interleave\nFile size                        : 1.66 GiB\nDuration                         : 1h 51mn\nOverall bit rate                 : 2 128 Kbps\n\nVideo:\n\nFormat                           : MPEG-4 Visual\nFormat profile                   : Simple@L3\nFormat settings, BVOP            : No\nFormat settings, QPel            : No\nFormat settings, GMC             : No warppoints\nFormat settings, Matrix          : Default (H.263)\nCodec ID                         : XVID\nCodec ID/Hint                    : XviD\nDuration                         : 1h 51mn\nBit rate                         : 1 733 Kbps\nWidth                            : 652 pixels\nHeight                           : 352 pixels\nDisplay aspect ratio             : 1.852\nFrame rate                       : 25.000 fps\nColor space                      : YUV\nChroma subsampling               : 4:2:0\nBit depth                        : 8 bits\nScan type                        : Progressive\nCompression mode                 : Lossy\nBits/(Pixel*Frame)               : 0.302\nStream size                      : 1.36 GiB (81%)\nWriting library                  : XviD 1.1.2 (UTC 2006-11-01)\n\nAudio:\n\nFormat                           : AC-3\nFormat/Info                      : Audio Coding 3\nMode extension                   : CM (complete main)\nCodec ID                         : 2000\nDuration                         : 1h 51mn\nBit rate mode                    : Constant\nBit rate                         : 384 Kbps\nChannel(s)                       : 6 channels\nChannel positions                : Front: L C R, Side: L R, LFE\nSampling rate                    : 48.0 KHz\nBit depth                        : 16 bits\nCompression mode                 : Lossy\nStream size                      : 307 MiB (18%)\nAlignment                        : Aligned on interleaves\nInterleave, duration             : 32 ms (0.80 video frame)\n\n\n","torrent":{"xt":"urn:btih:0903edcbf34f052c0c65c4a2812b4c83ccad4f9c","amp;dn":"High+School+Musical+3%2C+Senior+Year+2008+DVDrip","amp;tr":["udp%3A%2F%2Ftracker.openbittorrent.com%3A80","udp%3A%2F%2Fopen.demonii.com%3A1337","udp%3A%2F%2Ftracker.coppersurfer.tk%3A6969","udp%3A%2F%2Fexodus.desync.com%3A6969"],"infoHash":"0903edcbf34f052c0c65c4a2812b4c83ccad4f9c","infoHashBuffer":{"type":"Buffer","data":[9,3,237,203,243,79,5,44,12,101,196,162,129,43,76,131,204,173,79,156]},"announce":[],"urlList":[]}}